<?xml version="1.0" encoding="UTF-8"?>
<svg id="Layer_1" data-name="Layer 1" xmlns="http://www.w3.org/2000/svg" version="1.1" viewBox="0 0 512 512">
  <defs>
    <style>
      .cls-1 {
        fill: none;
        stroke: #485059;
        stroke-linecap: round;
        stroke-miterlimit: 10;
        stroke-width: 11px;
      }

      .cls-2 {
        fill: #485059;
      }

      .cls-2, .cls-3, .cls-4, .cls-5, .cls-6, .cls-7, .cls-8, .cls-9, .cls-10, .cls-11, .cls-12, .cls-13, .cls-14 {
        stroke-width: 0px;
      }

      .cls-3 {
        fill: #f4b9ce;
      }

      .cls-4 {
        fill: #959b9f;
      }

      .cls-5 {
        fill: #f29fc1;
      }

      .cls-6 {
        fill: #ffa8cb;
      }

      .cls-7 {
        fill: #000;
      }

      .cls-8 {
        fill: #5cb38d;
      }

      .cls-9 {
        fill: #57aa87;
      }

      .cls-10 {
        fill: #498a67;
      }

      .cls-15 {
        display: none;
      }

      .cls-11 {
        fill: #9bdfc1;
      }

      .cls-12 {
        fill: #427c5d;
      }

      .cls-13 {
        fill: #d1f1ff;
      }

      .cls-14 {
        fill: #4e9979;
      }
    </style>
  </defs>
  <g id="_색칠할꺼임" data-name=" 색칠할꺼임">
    <path id="_왼" data-name=" 왼" class="cls-10" d="M328.1,343.5c-8.4,0-19.5-3-33.4-7.6l-2.3-.8,10.4-33.6,2.3.6c1.3.3,32.2,8.4,39.5,20.8,1.6,2.7,2,5.5,1.3,8.3-1.3,4.7-3.8,8.1-7.5,10.1-2.8,1.5-6.2,2.2-10.3,2.2h0Z"/>
    <g id="_더라" data-name=" 더라">
      <path class="cls-10" d="M200.1,415.6c-1.7,0-3.4-.2-5.2-.7-16.9-4.2-16.8-20.3-13.8-33,3.8-16.1-.9-30.5-.9-30.6l-1.6-4.7,46.5,15.1v1.9c-.6,25.4-5.4,41.7-14.3,48.5-3.1,2.4-6.7,3.6-10.6,3.6h0Z"/>
      <path class="cls-10" d="M255.1,421.1c-.7,0-1.4,0-2.1-.1-16-1.6-18.1-16.2-17.1-28.2,1.3-15-4.9-27.3-4.9-27.5l-2.2-4.4,44.6,7.5.2,1.8c2.9,23.1.7,38.5-6.4,45.9-3.1,3.2-7.3,4.9-12,4.9h0Z"/>
      <path class="cls-12" d="M178.6,346.6l1.6,4.7c0,.1,4.7,14.6.9,30.6-.4,1.6-.7,3.2-.9,4.8-.2,1.6-.4,3.3-.5,5,1.6.2,3.2.5,4.9.8,8.3,1.2,18.9,2.4,31,3,1.7,0,3.4.2,5.2.2.5-1.6.9-3.2,1.3-5,1.7-7.4,2.7-16.5,3-27.2v-1.9s-46.4-15.1-46.4-15.1h0Z"/>
      <path class="cls-12" d="M273.6,370.2l-.2-1.8-44.6-7.5,2.2,4.4c0,.1,5.7,11.5,5.1,25.6,0,.6,0,1.2-.1,1.8,0,1-.1,2.1-.2,3.2,1.6,0,3.3,0,5-.1,9.3-.3,19.1-1,29-2.4,1.7-.2,3.4-.5,5-.7,0-1.6.1-3.3,0-5.1,0-5.2-.4-11-1.2-17.4h0Z"/>
    </g>
    <g id="_꼬리" data-name=" 꼬리">
      <path class="cls-8" d="M194.7,362.9l-4.6-.9c-39-7.8-67.3-14.1-104.5-30.2-23-9.9-36.1-23.2-32.5-33,3.1-8.3,16.9-9.7,36.2-3.7,27.7,8.6,67.7-12.6,68.1-12.8l2.4-1.3,34.9,81.9h0Z"/>
      <path class="cls-9" d="M194.7,362.9l-4.6-.9c-23.1-4.6-41-8.5-58.3-13.5l-1.5-.4-.3-1.5c-3.5-18.9-4.6-36-3.1-50.8l.2-1.7,1.7-.5c15.9-4.4,28.6-11.1,28.7-11.2l2.4-1.3,34.9,81.9h0Z"/>
    </g>
    <g id="_몸통" data-name=" 몸통">
      <path class="cls-8" d="M258.3,379.2c-7.1,0-14.8-.8-23.2-2.3-84.3-15.1-89.2-38.3-87.1-74.8,1.9-33.7,26.2-60.7,28.6-63.2,12-17.9,57.1-18.8,91.9-8.4,32.2,9.6,50.6,26.4,50.6,46v4.8c0,31.5.1,67.2-22.1,85.9-9.6,8.1-22.4,12.1-38.6,12.1h0ZM178.5,240.5h0Z"/>
      <path class="cls-9" d="M199.4,368.8l-3.7-1.2c-46.9-15-49.3-36.6-47.7-65.4,1.9-33.7,26.2-60.7,28.6-63.2,6.2-9.3,21.5-14.6,43.1-15.1h4.1c0,0-1.8,3.6-1.8,3.6-7.1,14.8-23.8,51.4-26,71.4h0c-2.3,20.7,1.6,55.9,2.9,66.1l.5,3.9h0ZM193.5,298.5h0,0Z"/>
      <path class="cls-11" d="M258.2,379c-6.9,0-14.5-.7-22.7-2.1-8.5-1.5-16.4-3.1-23.4-4.8l-2.2-.5.4-2.1c1.5-8.5,4.7-20.9,11.5-32.2,8.2-13.6,19.7-22,33.9-25h0c24-5.1,42.2-4.2,60.6,3l1.6.6v1.7c-2.3,23.9-9,39.6-21.3,49.6-9.7,7.9-22.3,11.7-38.5,11.7h0Z"/>
    </g>
    <g id="_얼굴" data-name=" 얼굴">
      <path class="cls-8" d="M395.1,293.2c-19.9,0-54.2-3.7-102.4-11-50.5-7.7-98.4-16.7-98.9-16.8h-.4c-16.4-5.7-29.2-17.6-37.1-34.6-7.1-15.4-10-34.1-8.4-54.1,3.5-42,28.4-90.6,74.9-98.2h.1c44.5-5.4,81.4,8.5,94.2,18.6,7.3,5.7,12.9,15.1,18.4,24.2,5.3,8.9,10.9,18,17.5,22.8,7.2,5.1,19.9,8.4,32.2,11.6,10.7,2.8,20.8,5.4,27.5,9.2,14.1,8,31.3,21.5,33.5,40.2,2.1,18-6.3,75.5-33.9,86.2-3.3,1.3-9.1,1.9-17.4,1.9h0Z"/>
      <path class="cls-9" d="M253.4,275.9l-6.9-1.2c-30-5.1-52.4-9.3-52.6-9.3h-.4c-16.4-5.7-29.2-17.6-37.1-34.6-7.1-15.4-10-34.1-8.4-54.1,3.5-42,28.4-90.6,74.9-98.2h.1c1.4-.2,2.7-.3,4.1-.5l5.6-.5-2.6,4.9c-10.4,19.4-21.6,51.2-16.6,92.7,5,41.5,22.4,74.6,36.1,95l3.9,5.8h0Z"/>
    </g>
    <g id="_입" data-name=" 입">
      <path id="_혀" data-name=" 혀" class="cls-3" d="M380.5,250.5c-3-16-13-28-29-32s-22.9,13.6-12,20c12,7,18,13,18,13l23-1Z"/>
      <path id="_이거절대지우지말것" data-name=" 이거절대지우지말것" class="cls-1" d="M353.5,251.5c14.2-4.3,26.4-1.8,37,6"/>
    </g>
    <g id="_땀" data-name=" 땀">
      <path class="cls-13" d="M111.5,84.5c-9,0-27,9-21,28,6.6,20.8,27,15,31,11s15-21,18-24c4.7-4.7-13.9-15-28-15Z"/>
      <path class="cls-13" d="M83.5,183.5c-4.3,6.8-10,23,3,34s33,4,38-9-1-24,2-36-33-5-43,11Z"/>
      <path class="cls-13" d="M385.5,73.5c8,.9,23,8,22,23s-13,21-23,19-23-18-31-19,14-25,32-23Z"/>
    </g>
    <path id="_오" data-name=" 오" class="cls-10" d="M243.2,340.2h0c-6,0-11.2-3.4-14.8-9.5-3-5.2-6-9-9.6-12.5-3.4-3.4-7.9-11.7-1.2-19.5,6.3-7.2,15.1-4.6,19.5-1.9.4,0,.8.2,1.1.5,12.1,10,25.1,24.2,18.4,35.4-2.7,4.5-8,7.4-13.4,7.5h0Z"/>
    <g id="_헛둘" data-name=" 헛둘">
      <path class="cls-2" d="M226.5,356h-.3c-7.1-.4-12.8-3.1-16.9-7.9-2-2.3-1.7-5.8.6-7.8,2.3-2,5.8-1.7,7.8.6,2.1,2.5,5.1,3.8,9.1,4.1,3,.2,5.3,2.8,5.2,5.8-.2,2.9-2.6,5.2-5.5,5.2h0Z"/>
      <path class="cls-2" d="M358.7,317.7c-1.4,0-2.8-.5-3.9-1.6-3.5-3.4-8.2-6.1-14.2-8-2.9-.9-4.5-4-3.5-6.9.9-2.9,4-4.5,6.9-3.5,7.6,2.5,13.9,6.1,18.5,10.7,2.2,2.1,2.2,5.6,0,7.8-1.1,1.1-2.5,1.6-3.9,1.6h0Z"/>
    </g>
    <g id="_얼굴그림자" data-name=" 얼굴그림자">
      <g id="_눈" data-name=" 눈">
        <path class="cls-2" d="M249,115.5c-1.1,0-2.3-.4-3.3-1.1-2.1-1.6-4.3-2.6-6.6-3-3-.5-5-3.4-4.4-6.4s3.4-5,6.4-4.4c4.1.7,7.8,2.4,11.4,5,2.4,1.8,2.9,5.3,1.1,7.7-1.1,1.4-2.7,2.2-4.4,2.2h0Z"/>
        <path class="cls-2" d="M243.5,137.5c-2.6,0-4.9-1.9-5.4-4.6-.7-3.8-.4-7.7.6-11.5.8-2.9,3.9-4.6,6.8-3.8s4.6,3.9,3.8,6.8c-.6,2.2-.8,4.3-.4,6.5.5,3-1.5,5.8-4.5,6.4-.3,0-.6,0-.9,0h0Z"/>
        <path class="cls-2" d="M304.3,123.5c-2.4,0-4.5-1.5-5.2-3.9-.9-2.9.7-6,3.6-6.9,4.2-1.3,8.2-1.6,12.4-.9,3,.5,5,3.3,4.5,6.3s-3.4,5-6.4,4.5c-2.4-.4-4.8-.2-7.3.6-.5.2-1.1.2-1.6.2Z"/>
        <path class="cls-2" d="M299.6,147c-.7,0-1.4-.1-2-.4-2.8-1.1-4.2-4.3-3-7.1,1.1-2.9,1.4-5.1,1.5-6.9.2-3,2.8-5.3,5.8-5.1,3,.2,5.3,2.8,5.1,5.8-.1,2.3-.5,5.9-2.3,10.3-.9,2.1-2.9,3.4-5.1,3.4h0Z"/>
      </g>
      <g id="_코" data-name=" 코">
        <circle class="cls-2" cx="404.5" cy="188.5" r="5.5"/>
        <circle class="cls-2" cx="368.5" cy="183.5" r="5.5"/>
      </g>
    </g>
    <g id="_쁘띠" data-name=" 쁘띠">
      <circle class="cls-14" cx="190.5" cy="207.5" r="5.5"/>
      <circle class="cls-14" cx="203.5" cy="238.5" r="5.5"/>
      <circle class="cls-14" cx="229.5" cy="222.5" r="5.5"/>
      <ellipse class="cls-6" cx="221.8" cy="142.7" rx="7.4" ry="14.3" transform="translate(43.7 337.1) rotate(-80.2)"/>
      <ellipse class="cls-6" cx="316.8" cy="157.7" rx="7.4" ry="14.3" transform="translate(107.8 443.2) rotate(-80.2)"/>
      <path class="cls-5" d="M207.8,140.3c-.3,1.9.8,3.9,2.9,5.6.3-3.3.7-6.7,1.1-9.6-2.2.9-3.7,2.3-4,4.1Z"/>
    </g>
  </g>
  <g id="_테두리맨" data-name=" 테두리맨" class="cls-15">
    <g id="_헛둘-2" data-name=" 헛둘-2">
      <path class="cls-2" d="M226.5,356h-.3c-7.1-.4-12.8-3.1-16.9-7.9-2-2.3-1.7-5.8.6-7.8,2.3-2,5.8-1.7,7.8.6,2.1,2.5,5.1,3.8,9.1,4.1,3,.2,5.3,2.8,5.2,5.8-.2,2.9-2.6,5.2-5.5,5.2h0Z"/>
      <path class="cls-2" d="M358.7,317.7c-1.4,0-2.8-.5-3.9-1.6-3.5-3.4-8.2-6.1-14.2-8-2.9-.9-4.5-4-3.5-6.9.9-2.9,4-4.5,6.9-3.5,7.6,2.5,13.9,6.1,18.5,10.7,2.2,2.1,2.2,5.6,0,7.8-1.1,1.1-2.5,1.6-3.9,1.6h0Z"/>
    </g>
    <g id="_몸통-2" data-name=" 몸통-2">
      <path class="cls-7" d="M449,204.9c-2.3-19.8-20.2-33.8-34.7-42.1-7-4-17.2-6.6-28.1-9.5-12.1-3.1-24.6-6.4-31.4-11.2-6.2-4.4-11.6-13.4-16.8-22-5.6-9.2-11.3-18.8-19-24.8-16.5-12.9-55.8-24-96.1-19.1h-.2c-47.8,7.8-73.4,57.6-77,100.5-1.7,20.5,1.3,39.6,8.6,55.4,2.9,6.3,6.6,12,10.7,16.9-5.8,8.3-12.7,20.4-16.8,34.5-12.8,5.6-38.7,14.9-58,8.9-21.3-6.6-36.2-4.5-39.9,5.6-4.3,11.5,9.1,26,34.1,36.8,32.1,13.9,57.7,20.5,89.1,27.1,1.9,1,3.9,2,6,2.9.3,4.8.2,10.6-1.2,16.7-2.3,9.7-2.2,17.4.2,23.5,2.6,6.6,8.1,11.1,15.8,13,2,.5,4,.8,6,.8,4.6,0,8.8-1.4,12.4-4.2,7.8-6,12.6-17.8,14.5-35.9,1.7.3,3.4.6,5.1,1,.7,3.8,1.1,8.3.7,13-.9,10.9.4,29.5,19.8,31.5.8,0,1.6.1,2.4.1,5.6,0,10.4-2,14.2-5.8,6.8-7,9.5-19.5,8.2-38.2,8.3-2.1,15.3-5.6,21.3-10.6,7.7-6.5,12.9-15,16.3-24.5,4.8,1,9.1,1.6,13,1.6s8.4-.8,11.7-2.6c4.5-2.4,7.5-6.5,9-12,.9-3.5.4-7.2-1.6-10.6-4.3-7.4-15.7-13.2-25.5-17,.2-5.2.3-10.3.3-15.4,39,5.3,61,6.8,73.7,6.8s15.9-1.4,17.8-2.1c16.3-6.3,25.2-26.6,29.8-42.5,5.2-18,6.8-36.9,5.7-46.3h0ZM88.7,324.5c-22.5-9.7-29.1-20.1-28.1-22.8.6-1.7,8-4.5,26.3,1.1,19.5,6,43.3-.5,58.6-6.4-.2,1.9-.4,3.8-.5,5.7-1,17.1-.4,31.7,9,44-21.6-5.2-41.7-11.4-65.3-21.6h0ZM205.9,405.7c-2.5,1.9-5.5,2.4-9.1,1.5-3.8-1-12.7-3.2-8-23.4,1.2-5.2,1.7-10.2,1.7-14.8,7.4,2.6,15.9,5,25.7,7.2-2,19.9-7.1,27-10.4,29.4h0ZM261.4,410.6c-1.2,1.2-3.3,2.9-7.6,2.4-3.4-.3-11.5-1.1-9.9-19.6.4-4.3.2-8.4-.2-12.1,5.2.6,10.1.9,14.7.9s5.7-.1,8.4-.4c1.1,18.9-2.6,26-5.2,28.7h0ZM337.7,326.9c.6,1.1.6,1.7.5,2.2-.9,3.4-2.5,4.6-3.6,5.2-3.4,1.8-9.4,1.5-16.4,0,1.4-5.9,2.2-12.1,2.8-18.4,7.6,3.2,14.5,7.1,16.7,11h0ZM432.7,248.1c-5.5,19.1-13.7,31.6-23.2,35.3-4.9,1.9-23,3.4-87.5-5.5-3.5-.5-7.2-1-11-1.5-5.3-.8-11-1.6-16.9-2.5-28.8-4.4-56.7-9.2-75.5-12.5h0c-.1,0-.2,0-.3,0-1.2-.2-5.5-.5-6.3,3.8-1,5,4.1,7,4.1,7,18.8,3.4,47.1,8.2,76.3,12.7,6.6,1,12.7,1.9,18.6,2.7,0,4.4,0,8.8-.1,13.1-.1,3.8-.3,7.6-.5,11.4-.5,6.8-1.3,13.4-2.7,19.6-.8,3.7-1.9,7.2-3.1,10.6-2.8,7.5-6.9,14-12.7,18.9-4.3,3.6-9.4,6.2-15.4,7.9-3.3.9-6.9,1.6-10.7,2-7.2.7-15.3.3-24.4-1-1.6-.2-3.1-.5-4.8-.8-2.6-.5-5.2-1-7.7-1.5-.3,0-.6-.1-.9-.2-3.8-.8-7.4-1.5-10.9-2.3-7.8-1.8-14.8-3.7-21-5.8-2.2-.8-4.4-1.5-6.4-2.3-4.7-1.8-8.9-3.8-12.6-5.8h0s0,0-.1,0c-5.1-2.9-9.1-5.9-12.2-9.3-9.7-10.5-9.8-23.4-8.9-39.2.2-3.9.8-7.8,1.6-11.5.9-4,2.1-7.9,3.5-11.5,3.4-9,7.9-16.9,11.9-22.9,5.8,4.8,12.5,8.5,19.8,11h.4c0,.1.2.2.2.2.9.2,4.8.5,5.7-3.9,1-5-2.8-6.8-2.8-6.8-.1,0-.2,0-.3,0-6.1-2.1-11.6-5.3-16.4-9.4-2.8-2.4-5.4-5-7.7-8-2.9-3.7-5.5-7.9-7.6-12.5-6.4-13.8-9.1-31.5-7.6-49.9,1.8-21.6,9.1-42.5,20.5-58.8,12.4-17.7,28.7-28.6,47.2-31.7,39.6-4.8,75.2,7,87.8,16.9,6.1,4.8,11.3,13.4,16.4,21.8,5.8,9.6,11.8,19.5,19.8,25.3,8.5,6.1,22,9.6,35,12.9,9.7,2.5,19.7,5.1,25.4,8.4,10.1,5.8,27.4,17.9,29.3,33.9,1,8.1-.6,25.5-5.3,42h0Z"/>
      <path class="cls-7" d="M230.6,287.9c-2.5-1.7-5.9-1-7.6,1.5s-1,5.9,1.5,7.6c13.3,8.8,29.4,24.7,25.3,31.6-1.3,2.1-3.9,3.6-6.6,3.6h0c-3.1,0-5.9-1.9-7.9-5.5-8.1-13.8-21.2-22.5-21.8-22.8-2.5-1.7-5.9-.9-7.6,1.6s-.9,6,1.6,7.6c.1,0,11.6,7.7,18.3,19.2,4,6.9,10.4,10.9,17.4,11h.1c6.5,0,12.7-3.5,16-8.9,5.2-8.7,1.5-19.4-10.9-31.8-8.2-8.2-17.3-14.3-17.7-14.6h0Z"/>
      <path class="cls-7" d="M226.5,354h-.3c-7.1-.4-12.8-3.1-16.9-7.9-2-2.3-1.7-5.8.6-7.8,2.3-2,5.8-1.7,7.8.6,2.1,2.5,5.1,3.8,9.1,4.1,3,.2,5.3,2.8,5.2,5.8-.2,2.9-2.6,5.2-5.5,5.2h0Z"/>
      <path class="cls-7" d="M355.7,317.7c-1.4,0-2.8-.5-3.9-1.6-3.5-3.4-8.2-6.1-14.2-8-2.9-.9-4.5-4-3.5-6.9.9-2.9,4-4.5,6.9-3.5,7.6,2.5,13.9,6.1,18.5,10.7,2.2,2.1,2.2,5.6,0,7.8-1.1,1.1-2.5,1.6-3.9,1.6h0Z"/>
    </g>
    <g id="_얼굴그림자-2" data-name=" 얼굴그림자-2">
      <g id="_눈-2" data-name=" 눈-2">
        <path class="cls-2" d="M249,115.5c-1.1,0-2.3-.4-3.3-1.1-2.1-1.6-4.3-2.6-6.6-3-3-.5-5-3.4-4.4-6.4s3.4-5,6.4-4.4c4.1.7,7.8,2.4,11.4,5,2.4,1.8,2.9,5.3,1.1,7.7-1.1,1.4-2.7,2.2-4.4,2.2h0Z"/>
        <path class="cls-2" d="M243.5,137.5c-2.6,0-4.9-1.9-5.4-4.6-.7-3.8-.4-7.7.6-11.5.8-2.9,3.9-4.6,6.8-3.8s4.6,3.9,3.8,6.8c-.6,2.2-.8,4.3-.4,6.5.5,3-1.5,5.8-4.5,6.4-.3,0-.6,0-.9,0h0Z"/>
        <path class="cls-2" d="M304.3,123.5c-2.4,0-4.5-1.5-5.2-3.9-.9-2.9.7-6,3.6-6.9,4.2-1.3,8.2-1.6,12.4-.9,3,.5,5,3.3,4.5,6.3s-3.4,5-6.4,4.5c-2.4-.4-4.8-.2-7.3.6-.5.2-1.1.2-1.6.2Z"/>
        <path class="cls-2" d="M299.6,147c-.7,0-1.4-.1-2-.4-2.8-1.1-4.2-4.3-3-7.1,1.1-2.9,1.4-5.1,1.5-6.9.2-3,2.8-5.3,5.8-5.1,3,.2,5.3,2.8,5.1,5.8-.1,2.3-.5,5.9-2.3,10.3-.9,2.1-2.9,3.4-5.1,3.4h0Z"/>
      </g>
      <g id="_코-2" data-name=" 코-2">
        <circle class="cls-2" cx="404.5" cy="188.5" r="5.5"/>
        <circle class="cls-2" cx="368.5" cy="183.5" r="5.5"/>
      </g>
    </g>
    <g id="_눈코입" data-name=" 눈코입">
      <g id="_눈-3" data-name=" 눈-3">
        <path class="cls-7" d="M249,119.5c-1.1,0-2.3-.4-3.3-1.1-2.1-1.6-4.3-2.6-6.6-3-3-.5-5-3.4-4.4-6.4s3.4-5,6.4-4.4c4.1.7,7.8,2.4,11.4,5,2.4,1.8,2.9,5.3,1.1,7.7-1.1,1.4-2.7,2.2-4.4,2.2h0Z"/>
        <path class="cls-7" d="M243.5,141.5c-2.6,0-4.9-1.9-5.4-4.6-.7-3.8-.4-7.7.6-11.5.8-2.9,3.9-4.6,6.8-3.8s4.6,3.9,3.8,6.8c-.6,2.2-.8,4.4-.4,6.5.5,3-1.5,5.8-4.5,6.4-.3,0-.6,0-.9,0h0Z"/>
        <path class="cls-7" d="M303.3,127.5c-2.4,0-4.5-1.5-5.2-3.9-.9-2.9.7-6,3.6-6.9,4.2-1.3,8.2-1.6,12.4-.9,3,.5,5,3.3,4.5,6.3s-3.4,5-6.4,4.5c-2.4-.4-4.8-.2-7.3.6-.5.2-1.1.2-1.6.2Z"/>
        <path class="cls-7" d="M299.6,151c-.7,0-1.4-.1-2-.4-2.8-1.1-4.2-4.3-3-7.1,1.1-2.9,1.4-5.1,1.5-6.9.2-3,2.8-5.3,5.8-5.1,3,.2,5.3,2.8,5.1,5.8-.1,2.3-.5,5.9-2.3,10.3-.9,2.1-2.9,3.4-5.1,3.4h0Z"/>
      </g>
      <g id="_입-2" data-name=" 입-2">
        <path class="cls-7" d="M393.7,253.1c-2.6-1.9-5.3-3.5-8.1-4.8-3.8-17.6-17.3-31.7-34.8-36.1-11.5-2.9-20,4-22.5,12.3-2.5,8.5,1.5,16.6,9.4,19.3,3.8,1.3,7.4,4.4,10.2,7.7,0,.6,0,1.1.2,1.7.6,1.9,2.1,3.3,3.9,3.7.9.2,2,.2,3,0,3-.9,6-1.5,8.8-1.7,8.4-.7,16.1,1.6,23.4,6.9,1,.7,2.1,1,3.2,1,1.7,0,3.4-.8,4.5-2.3,1.8-2.5,1.2-5.9-1.2-7.7h0ZM357,245c-3.9-4.7-9.3-9.5-15.7-11.7-3.4-1.1-2.5-5-2.3-5.8.3-1.1,2.3-6.4,9.2-4.7,11.3,2.8,20.5,11,24.8,21.6-5.2-.7-10.5-.6-16,.6h0Z"/>
      </g>
      <g id="_코-3" data-name=" 코-3">
        <circle class="cls-7" cx="399.5" cy="190.5" r="5.5"/>
        <circle class="cls-7" cx="365.5" cy="185.5" r="5.5"/>
      </g>
    </g>
    <g id="_땀-2" data-name=" 땀-2">
      <path class="cls-7" d="M101.6,228.5c-6.8,0-13.4-2.3-18.6-6.8-7-5.9-10.4-13.9-9.9-23.1.5-8.7,4.2-15.5,5.8-18.1h0c9-14.3,35.8-23.1,47.2-18.3,4.9,2.1,7.1,6.5,5.9,11.5-1.1,4.5-.7,9.1-.3,14,.6,6.7,1.3,14.3-1.9,22.6-3.1,8.1-10.9,14.6-20.2,17-2.6.7-5.2,1-7.8,1h0ZM88.2,186.4c-1.8,2.9-3.9,7.8-4.2,12.8-.3,5.8,1.7,10.4,6,14.1,4.5,3.8,10.5,5.1,16.6,3.5,6-1.5,10.9-5.5,12.7-10.3,2.3-6,1.8-11.7,1.2-17.7-.5-5.3-1-10.7.3-16.6-1.6-.3-4.8-.4-9.7.6-10,2.2-19.5,7.8-23.1,13.6h0Z"/>
      <path class="cls-7" d="M388.3,121.4c-1.6,0-3.3-.2-4.9-.5-6.4-1.3-12.8-6.4-19-11.3-3.9-3.1-9.2-7.3-11.6-7.6-4.2-.5-7-4-6.5-8.2,1.1-9.3,21.7-27.7,39.7-25.7,4.5.5,11.5,2.7,17.2,7.4,6.9,5.6,10.2,13,9.7,21.4-.5,8.2-4,15.1-9.8,19.5-4.3,3.3-9.5,5-14.9,5h0ZM359,92.5c3.9,1.8,7.9,5,12.3,8.5,4.9,3.9,10.5,8.4,14.3,9.1,3.8.8,7.9-.2,10.9-2.5,3.3-2.5,5.2-6.5,5.5-11.5.8-12.5-13.5-16.8-17.1-17.2h0c-9.9-1.1-21.6,8.2-25.9,13.5h0Z"/>
      <path class="cls-7" d="M109.1,132.9c-2,0-4.1-.2-6.1-.7-5.9-1.4-13.8-5.8-17.7-18-3.4-10.9-.2-18.6,3.2-23.2,5.8-7.8,15.9-11.9,23-11.9,12.2,0,30.1,7.2,33.6,15.5,1.3,3.2.7,6.5-1.7,8.9s-4.5,5.9-7.2,9.8c-5,7.1-8.4,11.9-10.8,14.2-3.1,3.1-9.5,5.5-16.3,5.5h0ZM111.5,90c-3.6,0-10.4,2.3-14.2,7.4-2.7,3.7-3.2,8.2-1.6,13.4,1.8,5.8,5.1,9.4,9.6,10.6,5.6,1.5,11.3-.9,12.3-1.8,1.8-1.8,6.1-7.9,9.5-12.8,2.9-4.2,5.1-7.2,6.7-9.2-3.4-2.9-13.4-7.6-22.4-7.6Z"/>
    </g>
  </g>
  <g id="_덤벨색칠할꼬양" data-name=" 덤벨색칠할꼬양">
    <path class="cls-2" d="M409.5,439c-26.7,0-48.5-21.8-48.5-48.5s21.8-48.5,48.5-48.5,48.5,21.8,48.5,48.5-21.8,48.5-48.5,48.5Z"/>
    <path class="cls-4" d="M401.8,409.5h-118.6c-11.7,0-21.2-9-21.2-20s9.5-20,21.2-20h118.6c11.7,0,21.2,9,21.2,20s-9.5,20-21.2,20h0Z"/>
    <path class="cls-2" d="M279.5,438c-26.7,0-48.5-21.8-48.5-48.5s21.8-48.5,48.5-48.5,48.5,21.8,48.5,48.5-21.8,48.5-48.5,48.5Z"/>
    <path class="cls-4" d="M279.5,410c-11.3,0-20.5-9.2-20.5-20.5s9.2-20.5,20.5-20.5,20.5,9.2,20.5,20.5-9.2,20.5-20.5,20.5Z"/>
  </g>
  <g id="_덤벨테두링" data-name=" 덤벨테두링" class="cls-15">
    <g id="_덤벨" data-name=" 덤벨">
      <path class="cls-7" d="M409.5,339c-19.9,0-37.2,11.4-45.8,28h-37.9c-8.4-17.1-26-29-46.3-29s-51.5,23.1-51.5,51.5,23.1,51.5,51.5,51.5,37.2-11.4,45.8-28h37.9c8.4,17.1,26,29,46.3,29s17.1-2.1,24.5-6.2c2.7-1.5,3.7-4.8,2.2-7.5-1.5-2.7-4.8-3.7-7.5-2.2-5.9,3.2-12.6,4.9-19.3,4.9-14,0-26.4-7.1-33.7-18h33.2c12.7,0,23-10.3,23-23s-10.3-23-23-23h-32.5c7.4-10.3,19.4-17,33-17,22.3,0,40.5,18.2,40.5,40.5s-2,14.7-5.9,21c-1.6,2.6-.8,6,1.8,7.6s6,.8,7.6-1.8c4.9-8,7.5-17.3,7.5-26.7,0-28.4-23.1-51.5-51.5-51.5h0ZM279.5,430c-22.3,0-40.5-18.2-40.5-40.5s18.2-40.5,40.5-40.5,40.5,18.2,40.5,40.5-18.2,40.5-40.5,40.5ZM409,378c6.6,0,12,5.4,12,12s-5.4,12-12,12h-79.5c1-4,1.5-8.2,1.5-12.5s-.5-7.8-1.3-11.5h79.3Z"/>
      <path class="cls-7" d="M279.5,369c-11.3,0-20.5,9.2-20.5,20.5s9.2,20.5,20.5,20.5,20.5-9.2,20.5-20.5-9.2-20.5-20.5-20.5ZM279.5,399c-5.2,0-9.5-4.3-9.5-9.5s4.3-9.5,9.5-9.5,9.5,4.3,9.5,9.5-4.3,9.5-9.5,9.5Z"/>
    </g>
  </g>
</svg>