<svg xmlns="http://www.w3.org/2000/svg" version="1.1" xmlns:xlink="http://www.w3.org/1999/xlink" xmlns:svgjs="http://svgjs.dev/svgjs" viewBox="0 0 2400 800"><defs><linearGradient x1="50%" y1="0%" x2="50%" y2="100%" id="sssurf-grad"><stop stop-color="hsl(208, 77%, 50%)" stop-opacity="1" offset="0%"></stop><stop stop-color="hsl(208, 74%, 93%)" stop-opacity="1" offset="100%"></stop></linearGradient></defs><g fill="url(#sssurf-grad)" transform="matrix(1,0,0,1,0,-92.67666625976562)"><path d="M 0 337.1443514500192 Q 450 461.2533341644078 600 330.6086148462432 Q 1050 554.533025691905 1200 328.9478674999776 Q 1650 486.06455784950253 1800 305.35331516862215 Q 2250 613.8614714856828 2400 330.342715353522 L 2400 800 L 0 800 L 0 337.66373803476165 Z" transform="matrix(1,0,0,1,0,35)" opacity="0.05"></path><path d="M 0 337.1443514500192 Q 450 461.2533341644078 600 330.6086148462432 Q 1050 554.533025691905 1200 328.9478674999776 Q 1650 486.06455784950253 1800 305.35331516862215 Q 2250 613.8614714856828 2400 330.342715353522 L 2400 800 L 0 800 L 0 337.66373803476165 Z" transform="matrix(1,0,0,1,0,70)" opacity="0.21"></path><path d="M 0 337.1443514500192 Q 450 461.2533341644078 600 330.6086148462432 Q 1050 554.533025691905 1200 328.9478674999776 Q 1650 486.06455784950253 1800 305.35331516862215 Q 2250 613.8614714856828 2400 330.342715353522 L 2400 800 L 0 800 L 0 337.66373803476165 Z" transform="matrix(1,0,0,1,0,105)" opacity="0.37"></path><path d="M 0 337.1443514500192 Q 450 461.2533341644078 600 330.6086148462432 Q 1050 554.533025691905 1200 328.9478674999776 Q 1650 486.06455784950253 1800 305.35331516862215 Q 2250 613.8614714856828 2400 330.342715353522 L 2400 800 L 0 800 L 0 337.66373803476165 Z" transform="matrix(1,0,0,1,0,140)" opacity="0.53"></path><path d="M 0 337.1443514500192 Q 450 461.2533341644078 600 330.6086148462432 Q 1050 554.533025691905 1200 328.9478674999776 Q 1650 486.06455784950253 1800 305.35331516862215 Q 2250 613.8614714856828 2400 330.342715353522 L 2400 800 L 0 800 L 0 337.66373803476165 Z" transform="matrix(1,0,0,1,0,175)" opacity="0.68"></path><path d="M 0 337.1443514500192 Q 450 461.2533341644078 600 330.6086148462432 Q 1050 554.533025691905 1200 328.9478674999776 Q 1650 486.06455784950253 1800 305.35331516862215 Q 2250 613.8614714856828 2400 330.342715353522 L 2400 800 L 0 800 L 0 337.66373803476165 Z" transform="matrix(1,0,0,1,0,210)" opacity="0.84"></path><path d="M 0 337.1443514500192 Q 450 461.2533341644078 600 330.6086148462432 Q 1050 554.533025691905 1200 328.9478674999776 Q 1650 486.06455784950253 1800 305.35331516862215 Q 2250 613.8614714856828 2400 330.342715353522 L 2400 800 L 0 800 L 0 337.66373803476165 Z" transform="matrix(1,0,0,1,0,245)" opacity="1"></path></g></svg>